<svg width="213" height="213" viewBox="0 0 213 213" fill="none" xmlns="http://www.w3.org/2000/svg">
<path d="M208.314 106.5L191.274 95.85L135.894 95.85L71.994 4.25997L59.214 4.25997L84.774 95.85L33.654 95.85L12.354 63.9L3.83398 63.9L12.354 102.24L12.354 110.76L3.83397 149.1L12.354 149.1L33.654 117.15L84.774 117.15L59.214 208.74L71.994 208.74L135.894 117.15L191.274 117.15L208.314 106.5Z" fill="black"/>
<path d="M187.44 96.276C175.676 96.276 166.14 100.853 166.14 106.5C166.14 112.147 175.676 116.724 187.44 116.724C199.204 116.724 208.74 112.147 208.74 106.5C208.74 100.853 199.204 96.276 187.44 96.276Z" fill="black" stroke="black"/>
</svg>
